<!-- icon666.com - MILLIONS OF FREE VECTOR ICONS --><svg viewBox="0 0 64 64" xmlns="http://www.w3.org/2000/svg"><g id="Layer_2" data-name="Layer 2"><path d="m35.93 10.06a3 3 0 0 0 -2.29-1.06h-3.28a3 3 0 0 0 -3 3.49l1 5.67a1 1 0 0 0 1 .84h5.34a1 1 0 0 0 1-.84l1-5.67a3 3 0 0 0 -.77-2.43z" fill="#8a8a8a"></path><path d="m32 17a25 25 0 0 0 -25 25v5a1 1 0 0 0 1 1h48a1 1 0 0 0 1-1v-5a25 25 0 0 0 -25-25z" fill="#bcbcbc"></path><path d="m35.68 17.27a27.52 27.52 0 0 1 14.32 24.13v5.5a1.1 1.1 0 0 1 -1.1 1.1h7.1a1 1 0 0 0 1-1v-5a25 25 0 0 0 -21.32-24.73z" fill="#aaa"></path><path d="m12.25 39.82h-.16a1 1 0 0 1 -.83-1.14 21 21 0 0 1 9.74-14.54 1 1 0 1 1 1 1.7 19 19 0 0 0 -8.76 13.16 1 1 0 0 1 -.99.82z" fill="#fff"></path><path d="m60 46h-56a1 1 0 0 0 -1 1v2.5a1 1 0 0 0 .47.85l4 2.5a1 1 0 0 0 .53.15h48a1 1 0 0 0 .53-.15l4-2.5a1 1 0 0 0 .47-.85v-2.5a1 1 0 0 0 -1-1z" fill="#8a8a8a"></path><path d="m40.22 18.4a11 11 0 0 0 15.38 15.38 25.07 25.07 0 0 0 -15.38-15.38z" fill="#919191"></path><circle cx="49" cy="25" fill="#00b13b" r="9"></circle><path d="m50 24v-3h-2v3h-3v2h3v3h2v-3h3v-2z" fill="#fff"></path></g></svg>