<!-- icon666.com - MILLIONS OF FREE VECTOR ICONS --><svg version="1.1" id="Capa_1" xmlns="http://www.w3.org/2000/svg" xmlns:xlink="http://www.w3.org/1999/xlink" x="0px" y="0px" viewBox="0 0 511.673 511.673" style="enable-background:new 0 0 511.673 511.673;" xml:space="preserve"><g><g><g><path d="M185.854,337.455c0.037-6.426-5.142-11.666-11.568-11.704c-3.126-0.018-6.128,1.222-8.33,3.442L49.592,445.556 c-4.18,4.881-3.612,12.227,1.269,16.407c4.356,3.731,10.781,3.731,15.138,0L182.363,345.6 C184.556,343.452,185.81,340.524,185.854,337.455z"></path><path d="M500.036,0c-1.734,0.01-3.443,0.408-5.004,1.164L6.305,210.618c-5.712,2.946-7.954,9.964-5.008,15.676 c1.407,2.727,3.834,4.789,6.753,5.735l192.233,79.127l78.662,192.465c1.982,6.113,8.544,9.462,14.658,7.48 c2.919-0.946,5.346-3.008,6.753-5.735L509.81,16.64c1-1.501,1.637-3.214,1.862-5.004C511.672,5.21,506.462,0,500.036,0z M41.214,221.091L448.487,46.545L206.334,288.931L41.214,221.091z M290.581,470.458l-67.84-165.12L465.127,62.604 L290.581,470.458z"></path><path d="M111.392,346.986c0.455-0.39,0.88-0.814,1.269-1.269l11.636-11.636c4.881-4.18,5.45-11.526,1.269-16.407 c-4.18-4.881-11.526-5.45-16.407-1.269c-0.455,0.39-0.88,0.814-1.269,1.269l-11.636,11.636c-4.881,4.18-5.45,11.526-1.269,16.407 C99.165,350.598,106.511,351.166,111.392,346.986z"></path><path d="M185.854,384c-3.093-0.018-6.066,1.196-8.262,3.375l-34.909,34.909c-4.881,4.18-5.45,11.526-1.269,16.407 c4.18,4.881,11.526,5.45,16.407,1.269c0.455-0.39,0.88-0.814,1.269-1.269L194,403.782c4.499-4.589,4.427-11.956-0.162-16.456 C191.702,385.233,188.844,384.042,185.854,384z"></path></g></g></g></svg>