<!-- icon666.com - MILLIONS OF FREE VECTOR ICONS --><svg viewBox="0 0 64 64" xmlns="http://www.w3.org/2000/svg"><g id="Star"><path d="m62.7 25.98-14.63 14.25 3.46 20.13a1 1 0 0 1 -.4.98.988.988 0 0 1 -.59.19 1.039 1.039 0 0 1 -.46-.11l-.7-.37-17.38-9.14-1 .53-17.08 8.98a1.02 1.02 0 0 1 -1.05-.08.763.763 0 0 1 -.25-.29.936.936 0 0 1 -.15-.69l3.46-20.13-14.63-14.25a.994.994 0 0 1 -.25-1.02 1.009 1.009 0 0 1 .81-.69l20.21-2.93 8.93-18.11.1-.2a1.041 1.041 0 0 1 1.8 0l9.03 18.31 20.21 2.93a1.009 1.009 0 0 1 .81.69.994.994 0 0 1 -.25 1.02z" fill="#ffd54f" style="fill: rgb(255, 196, 0);"></path><path d="m60.7 25.98-14.63 14.25 3.46 20.13a.936.936 0 0 1 -.15.69l-17.38-9.14-1 .53-1-.53-17.38 9.14a.936.936 0 0 1 -.15-.69l3.46-20.13-14.63-14.25a.994.994 0 0 1 -.25-1.02 1.009 1.009 0 0 1 .81-.69l20.21-2.93 8.93-18.11 8.93 18.11 20.21 2.93a1.009 1.009 0 0 1 .81.69.994.994 0 0 1 -.25 1.02z" fill="#ffe082" style="fill: rgb(255, 191, 0);"></path></g><g id="Layer_32" data-name="Layer 32"><path d="m50.541 61.509a1 1 0 0 1 -.466-.115l-18.075-9.503-18.075 9.5a1 1 0 0 1 -1.451-1.054l3.452-20.128-14.626-14.251a1 1 0 0 1 .554-1.706l20.209-2.936 9.037-18.316a1.04 1.04 0 0 1 1.8 0l9.039 18.313 20.209 2.936a1 1 0 0 1 .554 1.706l-14.628 14.257 3.452 20.128a1 1 0 0 1 -.985 1.169zm-18.541-11.748a1 1 0 0 1 .466.115l16.747 8.805-3.2-18.649a1 1 0 0 1 .287-.885l13.551-13.207-18.724-2.721a1 1 0 0 1 -.753-.547l-8.374-16.967-8.374 16.967a1 1 0 0 1 -.753.547l-18.724 2.721 13.551 13.207a1 1 0 0 1 .287.885l-3.2 18.649 16.747-8.8a1 1 0 0 1 .466-.12z" fill="#000000"></path></g></svg>