<!-- icon666.com - MILLIONS OF FREE VECTOR ICONS --><svg viewBox="0 0 64 64" xmlns="http://www.w3.org/2000/svg"><g id="outline" fill="rgb(0,0,0)"><path d="m16 48.3h-2v-18.24a6.9 6.9 0 0 1 .421-2.4l2.918-8.036a4.082 4.082 0 0 1 .954-1.476l1.413 1.416a2.08 2.08 0 0 0 -.49.751l-2.916 8.037a4.977 4.977 0 0 0 -.3 1.708z"></path><path d="m35.875 55.509-.631-1.9a10.724 10.724 0 0 0 6.672-6.018l1.827.814a12.82 12.82 0 0 1 -7.868 7.104z"></path><path d="m35.682 63.253-24.913-7.582 2.549-8.924 24.914 7.582zm-22.451-8.924 21.086 6.418 1.451-5.076-21.086-6.418z"></path><path d="m48.346 19.938-.691-1.877 2.676-.986a1.112 1.112 0 0 0 .611-1.388l-.323-.983a1.019 1.019 0 0 0 -.519-.615.856.856 0 0 0 -.677-.035l-1.079.395-.687-1.879 1.079-.395a2.852 2.852 0 0 1 2.239.115 3 3 0 0 1 1.545 1.791l.323.983a3.113 3.113 0 0 1 -1.825 3.89z"></path><path d="m25 5h20v2h-20z"></path><path d="m25 37h18v2h-18z"></path><path d="m29 17h-2v-4h4v2h-2z"></path><path d="m31 29h-4v-4h2v2h2z"></path><path d="m43 17h-2v-2h-2v-2h4z"></path><path d="m43 29h-4v-2h2v-2h2z"></path><path d="m31 22v3h3v-3zm2 2h-1v-1h1z"></path><path d="m31 17v3h3v-3zm2 2h-1v-1h1z"></path><path d="m36 17v3h3v-3zm2 2h-1v-1h1z"></path><path d="m36 22h1v1h-1z"></path><path d="m38 22h1v1h-1z"></path><path d="m38 24h1v1h-1z"></path><path d="m36 24h1v1h-1z"></path><path d="m37 23h1v1h-1z"></path><rect height="2" rx="1" width="6" x="32" y="40"></rect><path d="m46 45h-22a3 3 0 0 1 -3-3v-38a3 3 0 0 1 3-3h22a3 3 0 0 1 3 3v19h-2v-19a1 1 0 0 0 -1-1h-22a1 1 0 0 0 -1 1v38a1 1 0 0 0 1 1h22a1 1 0 0 0 1-1v-4h2v4a3 3 0 0 1 -3 3z"></path><path d="m50 29h-2a3 3 0 0 1 -3-3v-1a3 3 0 0 1 3-3h2a3 3 0 0 1 3 3v1a3 3 0 0 1 -3 3zm-2-5a1 1 0 0 0 -1 1v1a1 1 0 0 0 1 1h2a1 1 0 0 0 1-1v-1a1 1 0 0 0 -1-1z"></path><path d="m50 34h-2a3 3 0 0 1 -3-3v-1a3 3 0 0 1 3-3h2a3 3 0 0 1 3 3v1a3 3 0 0 1 -3 3zm-2-5a1 1 0 0 0 -1 1v1a1 1 0 0 0 1 1h2a1 1 0 0 0 1-1v-1a1 1 0 0 0 -1-1z"></path><path d="m50 39h-2a3 3 0 0 1 -3-3v-1a3 3 0 0 1 3-3h2a3 3 0 0 1 3 3v1a3 3 0 0 1 -3 3zm-2-5a1 1 0 0 0 -1 1v1a1 1 0 0 0 1 1h2a1 1 0 0 0 1-1v-1a1 1 0 0 0 -1-1z"></path></g></svg>