<!-- icon666.com - MILLIONS OF FREE VECTOR ICONS --><svg viewBox="0 0 48 48" xmlns="http://www.w3.org/2000/svg"><g id="Bill_Success" data-name="Bill Success"><path d="m31 21v25l-3-2-3 2-3-2-3 2-3-2-3 2-3-2-3 2-3-2-3 2v-41a4 4 0 0 1 4-4h29" fill="#fff"></path><path d="m42 21h-11v-16a4 4 0 0 1 8 0v2" fill="#7c6f66" style="fill: rgb(0, 0, 0);"></path><path d="m43 21a4 4 0 0 1 -4-4v-10h8v10a4 4 0 0 1 -4 4z" fill="#fff"></path><path d="m16.51 11h-1a1.5 1.5 0 0 1 -.05-3h4.54v-2h-3v-2h-2v2a3.5 3.5 0 0 0 .49 7h1a1.5 1.5 0 0 1 1 2.56c-.63.62-1 .44-5.56.42v2h3v2h2v-2.04a3.42 3.42 0 0 0 2-1 3.51 3.51 0 0 0 -2.42-5.94z" fill="#ffbe1d" style="fill: rgb(0, 0, 0);"></path><g fill="#7c6f66"><path d="m4 24h6v2h-6z" fill="#7c6f66" style="fill: rgb(0, 0, 0);"></path><path d="m12 24h16v2h-16z" fill="#7c6f66" style="fill: rgb(0, 0, 0);"></path><path d="m4 28h6v2h-6z" fill="#7c6f66" style="fill: rgb(0, 0, 0);"></path><path d="m12 28h16v2h-16z" fill="#7c6f66" style="fill: rgb(0, 0, 0);"></path><path d="m4 32h6v2h-6z" fill="#7c6f66" style="fill: rgb(0, 0, 0);"></path><path d="m12 32h16v2h-16z" fill="#7c6f66" style="fill: rgb(0, 0, 0);"></path><path d="m4 36h6v2h-6z" fill="#7c6f66" style="fill: rgb(0, 0, 0);"></path><path d="m12 36h16v2h-16z" fill="#7c6f66" style="fill: rgb(0, 0, 0);"></path></g><circle cx="29" cy="38" fill="#ffbe1d" r="9" style="fill: rgb(0, 0, 0);"></circle><path d="m40 6v-1a5 5 0 0 0 -5-5h-30a5 5 0 0 0 -5 5v42.87l4-2.67 3 2 3-2 3 2 3-2 3 2 3-2a10.58 10.58 0 0 0 7 2.8 10.13 10.13 0 0 0 3-.46c9.3-2.94 9.32-16.14 0-19.08v-6.46h11a5 5 0 0 0 5-5v-11zm-21 38.8-3-2-3 2-3-2-3 2-3-2-2 1.33v-39.13a3 3 0 0 1 3-3h26a4.92 4.92 0 0 0 -1 3v23.05a10 10 0 0 0 -9.26 15.59zm18-6.8a8 8 0 1 1 -7-7.94 8 8 0 0 1 7 7.94zm-5-18v-15a3 3 0 0 1 6 0c0 12.66-.34 13.24 1 15zm14-3a3 3 0 0 1 -6 0v-9h6z" fill="#000000"></path><path d="m27 42.41-3.41-3.41 1.41-1.41 2 2 6-6 1.41 1.41z" fill="#fff"></path></g></svg>